<svg xmlns="http://www.w3.org/2000/svg" xmlns:xlink="http://www.w3.org/1999/xlink" version="1.1" x="0px" y="0px" viewBox="0 0 512 640" enable-background="new 0 0 512 512" xml:space="preserve"><g><path fill="#000000" d="M152.908,294.701c0-5.891-4.766-10.67-10.656-10.67s-10.672,4.779-10.672,10.67s4.781,10.672,10.672,10.672   S152.908,300.592,152.908,294.701z"/><path fill="#000000" d="M157.783,369.686c2.078,2.078,4.812,3.125,7.546,3.125c2.719,0,5.453-1.047,7.531-3.125l45.266-45.25   c4.156-4.172,4.156-10.938,0-15.094c-4.172-4.156-10.922-4.156-15.094,0l-45.25,45.25   C153.611,358.764,153.611,365.514,157.783,369.686z"/><path fill="#000000" d="M172.423,324.873c16.625-16.625,16.625-43.701,0-60.342c-8.062-8.055-18.781-12.492-30.171-12.492   c-11.406,0-22.125,4.438-30.172,12.492c-16.64,16.641-16.64,43.717,0,60.342c8.047,8.062,18.766,12.5,30.172,12.5   C153.643,337.373,164.361,332.936,172.423,324.873z M127.158,279.625c4.031-4.031,9.391-6.25,15.094-6.25   c5.688,0,11.047,2.219,15.078,6.25c8.312,8.312,8.312,21.842,0,30.154c-4.031,4.031-9.391,6.25-15.078,6.25   c-5.703,0-11.062-2.219-15.094-6.25C118.846,301.467,118.846,287.938,127.158,279.625z"/><path fill="#000000" d="M456.452,64.001h-0.891c-1.594-9.547-5.328-18.539-10.953-26.414l0.641-0.633   c4.156-4.164,4.156-10.921,0-15.085c-4.172-4.164-10.922-4.164-15.094,0l-0.625,0.633c-7.875-5.625-16.874-9.352-26.421-10.945   v-0.891c0-5.891-4.766-10.664-10.656-10.664s-10.672,4.773-10.672,10.664v0.891c-9.547,1.594-18.547,5.32-26.422,10.938   l-0.625-0.625c-4.155-4.164-10.921-4.164-15.077,0c-4.172,4.164-4.172,10.921,0,15.085L324.563,52.04   c-4.156-4.164-10.922-4.164-15.078,0c-4.172,4.164-4.172,10.922,0,15.086l-15.094,15.086l0,0c-4.156-4.164-10.922-4.164-15.078,0   c-4.172,4.164-4.172,10.922,0,15.086l-15.094,15.086l0,0c-4.156-4.164-10.922-4.164-15.078,0c-4.172,4.164-4.172,10.922,0,15.086   l-15.094,15.086l0,0c-4.156-4.164-10.906-4.164-15.078,0s-4.172,10.922,0,15.086l-19.516,19.515   c-6.125-2.398-12.719-3.672-19.5-3.672c-13.562,0-26.343,5.039-36.234,14.219c-14.531-7.578-27.703-11.727-39.406-12.367   c-14.921-0.828-27.531,3.805-37.5,13.773c-12.875,12.867-18.766,26.828-17.5,41.492c1.281,14.969,10,26.938,17.078,34.352l-4,4   c-20.797,20.795-20.797,54.639,0,75.42l15.219,15.219c-12.062,13.531-33.672,42.688-32.688,77.25   c0.734,25.766,13.688,49.031,38.5,69.125l7.469,6.031l120.671-120.672l0,0l66.453-66.453   c15.438-15.438,19.406-38.061,11.922-57.193l19.531-19.531c2.094,2.086,4.812,3.125,7.547,3.125s5.469-1.039,7.547-3.125   c4.156-4.164,4.156-10.922,0-15.086l0,0l15.078-15.086l0,0c2.094,2.086,4.812,3.125,7.547,3.125s5.452-1.039,7.546-3.125   c4.156-4.164,4.156-10.922,0-15.086l0,0l15.078-15.086c2.094,2.086,4.812,3.125,7.547,3.125s5.453-1.039,7.547-3.125   c4.156-4.164,4.156-10.922,0-15.086l0,0l15.078-15.085l0,0c2.094,2.086,4.812,3.124,7.547,3.124s5.453-1.038,7.547-3.124   c4.155-4.164,4.155-10.922,0-15.086l15.077-15.086l0,0c2.094,2.086,4.812,3.125,7.547,3.125s5.453-1.039,7.547-3.125   c4.156-4.164,4.156-10.922,0-15.086l-0.625-0.625c5.625-7.875,9.344-16.867,10.938-26.414h0.891   c5.891,0,10.656-4.781,10.656-10.672S462.343,64.001,456.452,64.001z M179.955,194.82c8.547,0,16.578,3.328,22.625,9.367   l60.359,60.344c9.5,9.5,11.75,23.545,6.781,35.217c-10.422-12.248-28.938-33.131-51.046-54.436   c-19.953-19.219-38.422-34.508-55.328-45.852C168.298,196.438,174.001,194.82,179.955,194.82z M70.549,228.688   c-0.656-8.062,3.172-16.305,11.359-24.5c5.562-5.562,12.5-8.031,21.234-7.555c6.109,0.336,14.203,2.172,24.641,6.938   l-46.312,46.305C76.799,244.961,71.268,237.406,70.549,228.688z M77.487,284.031l11.578-11.562c0.266-0.25,0.531-0.508,0.766-0.781   l57.375-57.375c15.187,9.711,33.812,24.375,56.5,46.211c23.312,22.445,42.906,44.912,52.359,56.131L154.471,418.248   c-0.672-2.312-1.516-4.656-2.547-7.016c-5.25-12.047-13.484-20.953-13.828-21.328l-0.141-0.125l-60.468-60.484   C65.002,316.811,65.002,296.514,77.487,284.031z M89.659,483.061c-15.047-14.312-22.906-30-23.406-46.719   c-0.25-8.344,1.312-16.406,3.859-23.906c2.062,1.969,4.719,2.953,7.375,2.953c2.734,0,5.453-1.047,7.547-3.125   c4.156-4.172,4.156-10.922,0-15.078l-5.125-5.125c4.422-7.125,9.125-13.062,12.844-17.344l29.812,29.828   c0.766,0.859,6.297,7.188,9.797,15.203c5.609,12.875,1.5,19.109-2.078,22.688l0,0L89.659,483.061z M362.281,165.172   c0,0,0,0,0,0.008c-0.016,0-0.016,0-0.016,0l-84.249,84.266l-22.625-22.625l99.343-99.343c0-0.008,0-0.008,0-0.008l7.547-7.547   l0.016-0.016l37.688-37.695c4.172-4.172,4.172-10.922,0-15.086c-4.156-4.172-10.906-4.172-15.078,0L240.298,211.734l-22.625-22.625   l23.921-23.922v-0.008l0,0l30.172-30.163c0,0,0,0,0-0.008l0,0l30.172-30.164l0,0c0-0.008,0-0.008,0-0.008l60.343-60.336   c8.047-8.055,18.766-12.492,30.156-12.492c11.406,0,22.109,4.438,30.171,12.5c8.062,8.055,12.5,18.766,12.5,30.164   s-4.438,22.109-12.5,30.172L362.281,165.172z"/></g><text x="0" y="527" fill="#000000" font-size="5px" font-weight="bold" font-family="'Helvetica Neue', Helvetica, Arial-Unicode, Arial, Sans-serif">Created by lastspark</text><text x="0" y="532" fill="#000000" font-size="5px" font-weight="bold" font-family="'Helvetica Neue', Helvetica, Arial-Unicode, Arial, Sans-serif">from the Noun Project</text></svg>