<?xml version="1.0" encoding="UTF-8" standalone="no"?>
<svg
   xmlns:dc="http://purl.org/dc/elements/1.1/"
   xmlns:cc="http://creativecommons.org/ns#"
   xmlns:rdf="http://www.w3.org/1999/02/22-rdf-syntax-ns#"
   xmlns:svg="http://www.w3.org/2000/svg"
   xmlns="http://www.w3.org/2000/svg"
   id="svg4931"
   version="1.1"
   viewBox="0 0 54.926373 53.921982"
   height="53.921982mm"
   width="54.926373mm">
  <defs
     id="defs4925" />
  <metadata
     id="metadata4928">
    <rdf:RDF>
      <cc:Work
         rdf:about="">
        <dc:format>image/svg+xml</dc:format>
        <dc:type
           rdf:resource="http://purl.org/dc/dcmitype/StillImage" />
        <dc:title></dc:title>
      </cc:Work>
    </rdf:RDF>
  </metadata>
  <g
     transform="translate(-4.138862e-6,-87.098542)"
     id="layer1">
    <g
       id="g4232-6-4-1"
       style="display:inline;fill:#000000"
       transform="matrix(0.10167668,-0.10167668,0.10167668,0.10167668,-118.78721,139.90208)">
      <path
         style="display:inline;fill:#000000;stroke-width:0.69030714"
         d="m 692,620 h -83 l -7.8464,-29.78284 c -0.37182,-9.54343 -0.40996,-9.45657 4.91949,-19.24788 l 12.72988,-21.28496 c 7.68432,-8.67585 10.94134,-9.36066 19.12143,-10.1043 L 687.1971,534.54944 711,544 l -22,12 -45.90148,3.89301 c -6.40611,0.64946 -6.33915,0.79991 -11.44501,7.76664 -2.75099,4.36399 -3.32376,3.6395 -6.17439,9.96048 -5.2412,11.25037 -5.98316,9.22944 -0.18886,23.63623 L 688,602 c 0,0 -0.27285,9.10047 1.12394,13.33792 C 689.69557,617.07208 692,620 692,620 Z"
         id="path339-5-6-3-0" />
      <path
         style="display:inline;fill:#000000"
         d="m 1051.688,574.07663 -212.48605,-0.44588 v 45.9623 l 212.27485,0.44588 c 17.4633,0.0537 31.9012,-10.25417 32.0012,-22.93058 v 0 c 0.074,-12.60664 -14.2301,-22.95952 -31.79,-23.03172 z"
         id="path108-1-1-9-0-0" />
      <path
         style="display:inline;fill:#000000"
         d="m 1024.5576,633.39971 15.183,0.091 9.8254,-10.53522 -15.1509,0.0193 z"
         id="polygon136-5-7-4-1-7" />
      <path
         style="display:inline;fill:#000000"
         d="m 1079.2031,574.40415 c 0,0 3.7818,5.18816 5.1384,9.76199 l 12.7945,10.67461 -4.8187,-14.36066 z"
         id="path140-1-1-38-3-4" />
      <path
         style="display:inline;fill:#000000"
         d="m 1085.4537,596.80478 c 0,0 -0.8003,6.37017 -2.9462,10.63104 l 2.0049,16.54174 6.33,-13.76155 z"
         id="path140-1-1-3-8-6-3" />
      <path
         style="display:inline;fill:#000000"
         d="m 1075.214,615.60827 c 0,0 -5.333,3.57454 -9.9568,4.74984 l -11.1703,12.36412 14.5393,-4.24931 z"
         id="path140-1-1-1-8-8-5" />
      <path
         style="display:inline;fill:#000000"
         d="m 993.66501,633.3997 15.18299,0.091 9.8254,-10.53521 -15.1509,0.0192 z"
         id="polygon136-5-7-2-2-1-6" />
      <path
         style="display:inline;fill:#000000"
         d="m 962.77234,633.39971 15.18294,0.091 9.82544,-10.53522 -15.15088,0.0193 z"
         id="polygon136-5-7-3-8-9-8" />
      <path
         style="display:inline;fill:#000000"
         d="m 931.87971,633.3997 15.18294,0.091 9.82544,-10.53521 -15.15088,0.0193 z"
         id="polygon136-5-7-34-3-4-7" />
      <path
         style="display:inline;fill:#000000"
         d="m 900.98715,633.3997 15.18294,0.091 9.82544,-10.53521 -15.15087,0.0192 z"
         id="polygon136-5-7-1-9-3-8" />
      <path
         style="display:inline;fill:#000000"
         d="m 870.09454,633.3997 15.18294,0.091 9.82544,-10.53521 -15.15087,0.0192 z"
         id="polygon136-5-7-13-1-5-4" />
      <path
         style="display:inline;fill:#000000"
         d="m 839.20195,633.39971 15.18294,0.091 9.82544,-10.53522 -15.15088,0.0193 z"
         id="polygon136-5-7-8-2-1-2" />
      <path
         style="display:inline;fill:#000000"
         d="m 998.15883,564.69054 15.18287,0.091 9.8254,-10.53521 -15.1509,0.0192 z"
         id="polygon136-5-7-2-7-6-2-2" />
      <path
         style="display:inline;fill:#000000"
         d="m 966.61542,564.69054 15.18294,0.091 9.8254,-10.53522 -15.15084,0.0193 z"
         id="polygon136-5-7-3-4-5-3-1" />
      <path
         style="display:inline;fill:#000000"
         d="m 935.07194,564.69054 15.18294,0.091 9.82544,-10.53521 -15.15088,0.0193 z"
         id="polygon136-5-7-34-2-5-4-3" />
      <path
         style="display:inline;fill:#000000"
         d="m 903.52853,564.69054 15.18294,0.091 9.82544,-10.53521 -15.15087,0.0192 z"
         id="polygon136-5-7-1-7-9-5-4" />
      <path
         style="display:inline;fill:#000000"
         d="m 871.98508,564.69054 15.18294,0.091 9.82544,-10.53521 -15.15087,0.0192 z"
         id="polygon136-5-7-13-7-2-3-1" />
      <path
         style="display:inline;fill:#000000"
         d="m 840.44169,564.69054 15.18294,0.091 9.82544,-10.53522 -15.15088,0.0193 z"
         id="polygon136-5-7-8-9-1-6-0" />
      <path
         style="display:inline;fill:#000000"
         d="m 1029.7023,564.69054 15.1829,0.091 9.8254,-10.53521 -15.1509,0.0192 z"
         id="polygon136-5-7-2-7-3-3-6-4" />
      <path
         style="display:inline;fill:#000000"
         d="m 1059.2106,565.95055 c 0,0 6.3653,0.83726 10.6138,3.00779 5.5859,-0.16387 11.0579,-0.99428 16.5529,-1.90895 l -13.7245,-6.40972 z"
         id="path140-1-1-19-8-7-5" />
      <path
         style="display:inline;fill:#000000"
         d="m 1053.0529,567.45048 -213.85095,-0.1465 v 2.88124 H 1055.035 c 7.2606,0.13098 7.221,0.0566 17.1899,3.25543 0,0 -6.4325,-5.71485 -19.172,-5.99017 z"
         id="path108-1-1-8-9-2-8" />
      <path
         style="display:inline;fill:#000000"
         d="m 823.75586,522.15039 -88.9043,10.65039 -43.11718,25.75391 0.0469,5.12109 43.83789,-24.93359 84.03906,-10.59766 c 1.23872,1.05474 2.35557,2.14448 3.39063,3.30859 L 735,542 691.74219,567.84766 v 6.92187 14.26172 l 0.20508,20.98047 c 0.016,5.5785 4.5504,10.0436 10.1289,10.02734 l 30.80274,-0.16211 52.60937,-0.2539 50.11914,-0.20117 c 0,-24.21029 0,-48.42057 0,-72.63086 l -4.20471,-15.12597 z"
         id="path333-8-4-4-8-0" />
      <path
         style="display:inline;fill:#000000;stroke-width:0.41001546"
         d="m 716.4231,493.34809 42.27812,32.22063 32.4758,-3.87519 -62.56786,-45.405 c -5.23703,-3.74168 -12.29722,-2.98261 -15.67071,1.71352 v 0 c -3.34727,4.67571 -1.77658,11.57689 3.48465,15.34604 z"
         id="path108-1-1-88-3-2-1" />
    </g>
    <rect
       y="159.0387"
       x="113.39286"
       height="67.73333"
       width="67.73333"
       id="rect5131"
       style="color:#000000;display:inline;overflow:visible;visibility:visible;opacity:1;fill:none;fill-opacity:1;fill-rule:nonzero;stroke:none;stroke-width:0.079375;stroke-linecap:butt;stroke-linejoin:miter;stroke-miterlimit:4;stroke-dasharray:none;stroke-dashoffset:0;stroke-opacity:1;marker:none;enable-background:accumulate" />
  </g>
</svg>
